<svg xmlns="http://www.w3.org/2000/svg" width="23.804" height="23.804" viewBox="0 0 23.804 23.804">
  <path id="ic_loyalty_24px" d="M25.1,13.4,14.39,2.69A2.366,2.366,0,0,0,12.712,2H4.38A2.387,2.387,0,0,0,2,4.38v8.332a2.375,2.375,0,0,0,.7,1.69L13.414,25.114a2.366,2.366,0,0,0,1.678.69,2.327,2.327,0,0,0,1.678-.7L25.1,16.771a2.327,2.327,0,0,0,.7-1.678A2.4,2.4,0,0,0,25.1,13.4ZM6.166,7.951A1.785,1.785,0,1,1,7.951,6.166,1.783,1.783,0,0,1,6.166,7.951Zm14.009,9.843-5.082,5.082L10.01,17.794a2.979,2.979,0,0,1,2.107-5.082,2.939,2.939,0,0,1,2.107.881l.869.857.869-.869a2.979,2.979,0,0,1,4.213,4.213Z" transform="translate(-2 -2)" fill="#a5a5a5"/>
</svg>