<svg xmlns="http://www.w3.org/2000/svg" width="12" height="12" viewBox="0 0 12 12">
  <path id="ic_wb_sunny_24px" d="M4.142,2.9,3.16,1.92l-.769.773.976.981ZM2.636,6H1V7.1H2.636ZM7.545.55H6.455V2.166H7.545V.55Zm4.064,2.142L10.84,1.92,9.864,2.9l.769.773ZM9.858,10.2l.976.986.769-.773-.982-.981-.764.767ZM11.364,6V7.1H13V6ZM7,3.262A3.288,3.288,0,1,0,10.273,6.55,3.283,3.283,0,0,0,7,3.262ZM6.455,12.55H7.545V10.934H6.455ZM2.391,10.408l.769.773.976-.986-.769-.773Z" transform="translate(-1 -0.55)" fill="#fff"/>
</svg>
