<svg xmlns="http://www.w3.org/2000/svg" width="28.41" height="25.479" viewBox="0 0 14.41 25.479">
  <path id="ic_attach_money_24px" d="M14.077,14.182c-3.213-.835-4.247-1.7-4.247-3.043,0-1.543,1.43-2.619,3.822-2.619,2.52,0,3.454,1.2,3.539,2.973h3.128A5.643,5.643,0,0,0,15.776,6.1V3H11.529V6.057c-2.746.595-4.954,2.378-4.954,5.11,0,3.27,2.7,4.9,6.653,5.846,3.539.849,4.247,2.095,4.247,3.411,0,.977-.694,2.534-3.822,2.534-2.916,0-4.062-1.3-4.218-2.973H6.32c.17,3.1,2.491,4.841,5.209,5.421v3.072h4.247V25.436c2.76-.524,4.954-2.123,4.954-5.025C20.73,16.391,17.29,15.018,14.077,14.182Z" transform="translate(-6.32 -3)" fill="#a5a5a5"/>
</svg>